<svg width="32" height="33" viewBox="0 0 32 33" fill="none" xmlns="http://www.w3.org/2000/svg">
<path d="M21.2401 15.7761L10.0941 5.15607C9.90812 4.97878 9.66103 4.87988 9.40409 4.87988C9.14715 4.87988 8.90007 4.97878 8.71409 5.15607L8.70209 5.16807C8.61162 5.25402 8.53958 5.35747 8.49036 5.47214C8.44113 5.5868 8.41574 5.71029 8.41574 5.83507C8.41574 5.95986 8.44113 6.08334 8.49036 6.19801C8.53958 6.31267 8.61162 6.41613 8.70209 6.50207L19.1981 16.5021L8.70209 26.4981C8.61162 26.584 8.53958 26.6875 8.49036 26.8021C8.44113 26.9168 8.41574 27.0403 8.41574 27.1651C8.41574 27.2899 8.44113 27.4133 8.49036 27.528C8.53958 27.6427 8.61162 27.7461 8.70209 27.8321L8.71409 27.8441C8.90007 28.0214 9.14715 28.1203 9.40409 28.1203C9.66103 28.1203 9.90812 28.0214 10.0941 27.8441L21.2401 17.2241C21.3381 17.1307 21.4162 17.0184 21.4695 16.8939C21.5228 16.7694 21.5503 16.6355 21.5503 16.5001C21.5503 16.3647 21.5228 16.2307 21.4695 16.1062C21.4162 15.9818 21.3381 15.8695 21.2401 15.7761Z" fill="#23262F"/>
</svg>
