<svg width="32" height="33" viewBox="0 0 32 33" fill="none" xmlns="http://www.w3.org/2000/svg">
<path d="M10.7599 15.7761L21.9059 5.15607C22.0919 4.97878 22.339 4.87988 22.5959 4.87988C22.8528 4.87988 23.0999 4.97878 23.2859 5.15607L23.2979 5.16807C23.3884 5.25402 23.4604 5.35747 23.5096 5.47214C23.5589 5.5868 23.5843 5.71029 23.5843 5.83507C23.5843 5.95986 23.5589 6.08334 23.5096 6.19801C23.4604 6.31267 23.3884 6.41613 23.2979 6.50207L12.8019 16.5021L23.2979 26.4981C23.3884 26.584 23.4604 26.6875 23.5096 26.8021C23.5589 26.9168 23.5843 27.0403 23.5843 27.1651C23.5843 27.2899 23.5589 27.4133 23.5096 27.528C23.4604 27.6427 23.3884 27.7461 23.2979 27.8321L23.2859 27.8441C23.0999 28.0214 22.8529 28.1203 22.5959 28.1203C22.339 28.1203 22.0919 28.0214 21.9059 27.8441L10.7599 17.2241C10.6619 17.1307 10.5838 17.0184 10.5305 16.8939C10.4772 16.7694 10.4497 16.6355 10.4497 16.5001C10.4497 16.3647 10.4772 16.2307 10.5305 16.1062C10.5838 15.9818 10.6619 15.8695 10.7599 15.7761Z" fill="#23262F"/>
</svg>
