<svg width="91" height="54" viewBox="0 0 91 54" fill="none" xmlns="http://www.w3.org/2000/svg">
<g filter="url(#filter0_b_20_955)">
<path d="M41.1497 20.774V20.7754L39.8818 20.8063C39.7335 20.81 39.5901 20.8472 39.4704 20.913C39.3506 20.9789 39.2601 21.0703 39.2106 21.1755L39.0189 21.1211C38.8369 21.0703 38.6356 21.0755 38.4587 21.1355C38.2818 21.1955 38.1435 21.3055 38.0738 21.4417L37.9231 21.7344L37.5885 21.6873C37.4364 21.6652 37.279 21.6796 37.1384 21.7285L35.3187 22.3712C35.1494 22.4308 35.0165 22.5364 34.9469 22.6668L34.5928 23.3287L34.2014 23.8581C34.1135 23.9772 34.0871 24.1165 34.1271 24.2494L34.2934 24.8068L33.8394 25.5833C33.8047 25.6429 33.7841 25.7066 33.7788 25.7716L33.7064 26.6526C33.6223 26.6129 33.5285 26.5864 33.4305 26.5746L31.1098 26.2981L30.1451 26.1349L29.742 25.6348C29.6909 25.5709 29.6231 25.5155 29.5427 25.4718C29.4623 25.4281 29.3711 25.397 29.2744 25.3804L26.396 24.8877L24.8013 24.5009C24.6449 24.4631 24.4762 24.4657 24.3219 24.5082L23.9306 24.6156L22.8955 24.1582C22.8108 24.1206 22.717 24.0961 22.6196 24.0861L21.5023 23.9729C21.3577 23.9582 21.2107 23.9761 21.0796 24.0243L19.9761 24.4303L18.7335 24.1111C18.5748 24.0702 18.4022 24.0713 18.2444 24.114L17.0194 24.4464C16.8666 24.4873 16.736 24.5648 16.6477 24.667L15.9452 25.4848C15.9432 25.4872 15.9413 25.4897 15.9393 25.4921L15.7534 25.7172L15.4776 25.7098C15.3556 25.7064 15.2344 25.7257 15.1249 25.7662C15.0153 25.8066 14.9208 25.8668 14.8498 25.9414C14.7789 26.0161 14.7336 26.1028 14.7182 26.1938C14.7028 26.2848 14.7176 26.3772 14.7614 26.4628L14.8377 26.6114C14.7048 26.6521 14.5905 26.7211 14.509 26.8099L13.9415 27.4335C13.9117 27.4667 13.8868 27.5022 13.8672 27.5394L13.4523 28.316C13.402 28.4112 13.3878 28.5151 13.4113 28.616L13.4934 28.9793C13.5257 29.1206 13.6295 29.247 13.7831 29.3321C13.9367 29.4171 14.1281 29.454 14.3172 29.4352L15.7143 29.297L15.9726 29.4338L14.2566 30.1103L13.2762 30.3339C13.1109 30.3716 12.9685 30.4517 12.8737 30.5603C12.7789 30.6689 12.7379 30.7991 12.7577 30.9281L12.7792 31.0781L12.1511 31.1972C11.9865 31.2287 11.8413 31.302 11.7402 31.4046L10.0614 33.1033L7.91679 33.8431C7.79243 33.8863 7.68653 33.9546 7.61093 34.0405C7.53534 34.1263 7.49304 34.2263 7.48877 34.3292C7.48451 34.4321 7.51844 34.5339 7.58678 34.6231C7.65512 34.7123 7.75516 34.7855 7.87569 34.8344L9.22387 35.3786L10.7951 36.086C10.8982 36.1325 11.0148 36.1594 11.1349 36.1642C11.2549 36.1691 11.3747 36.1518 11.4839 36.114L12.2881 35.833L12.5601 36.1257L12.7577 37.3362C12.7705 37.4139 12.805 37.4887 12.859 37.5557C12.913 37.6227 12.9853 37.6803 13.071 37.7248C13.1568 37.7692 13.2542 37.7995 13.3566 37.8137C13.4591 37.8278 13.5644 37.8255 13.6656 37.8068L14.3113 37.6877L16.2133 38.1201C16.2692 38.133 16.327 38.1409 16.3855 38.1436L18.3989 38.2274C18.5739 38.2347 18.7466 38.1948 18.8861 38.1151C19.0256 38.0353 19.1227 37.9208 19.1601 37.7921L19.3832 37.0332L19.9878 36.8346C20.154 36.7803 20.2877 36.6819 20.3635 36.5581L20.8331 35.7889L20.8448 35.8036C20.8641 35.8274 20.8857 35.85 20.9094 35.8713L21.469 36.4052L21.1305 36.967C21.0877 37.0381 21.0654 37.1151 21.0649 37.1931C21.0644 37.2711 21.0858 37.3483 21.1278 37.4196C21.1697 37.491 21.2312 37.5549 21.3082 37.6071C21.3852 37.6594 21.476 37.6989 21.5747 37.723L22.8446 38.0348C22.918 38.0524 22.9945 38.0614 23.0716 38.0612H23.7819L24.0499 38.7084C24.1028 38.8358 24.215 38.9446 24.3659 39.0148C24.5169 39.0851 24.6965 39.112 24.8718 39.0908L25.9577 38.9584L26.7854 39.3599L27.7755 40.2394C27.8511 40.3064 27.9467 40.3589 28.0546 40.3927C28.1624 40.4264 28.2794 40.4404 28.3958 40.4336L29.4661 40.3703L29.6364 40.4262L28.84 40.7351C28.745 40.772 28.6619 40.824 28.5964 40.8875C28.5308 40.951 28.4844 41.0245 28.4604 41.1028L28.2843 41.6808L26.4117 41.3219C26.2957 41.2996 26.1743 41.2988 26.0578 41.3196C25.9413 41.3405 25.8334 41.3823 25.7432 41.4415C25.6531 41.5007 25.5834 41.5756 25.5404 41.6595C25.4973 41.7435 25.482 41.8341 25.496 41.9234C25.496 41.9234 25.538 42.3082 25.5644 42.6427C25.4113 42.5556 25.087 42.3706 25.087 42.3706C24.948 42.292 24.7765 42.253 24.6029 42.2602C24.4292 42.2675 24.2646 42.3206 24.138 42.4103L22.1382 43.8296C22.0727 43.8758 22.019 43.9306 21.9797 43.9913L21.6706 44.4723L21.0973 44.7017L20.6042 44.4752C20.5462 44.4488 20.4836 44.4285 20.4183 44.4149L16.3248 43.5428C16.2174 43.52 16.1046 43.5159 15.9948 43.5307C15.885 43.5454 15.781 43.5787 15.6908 43.6281L14.5325 44.2605C14.4381 44.3118 14.3612 44.3792 14.3081 44.4572C14.2551 44.5352 14.2273 44.6215 14.2272 44.7091V45.268C14.2277 45.3065 14.2337 45.345 14.2448 45.3827L12.6697 45.5047C12.5712 45.5123 12.4757 45.5347 12.389 45.5706C12.3023 45.6065 12.226 45.6551 12.1648 45.7136L11.9202 45.9489C11.857 45.8608 11.7632 45.7872 11.6489 45.736C11.5345 45.6847 11.4038 45.6576 11.2706 45.6577H2.9565C2.85829 45.6577 2.76107 45.6724 2.67054 45.701C2.58 45.7296 2.49797 45.7715 2.42926 45.8242C2.36055 45.877 2.30655 45.9395 2.27041 46.0081C2.23427 46.0768 2.21673 46.1501 2.21882 46.2239C2.07776 46.209 1.93396 46.2251 1.80479 46.2702C1.67562 46.3154 1.56661 46.3877 1.49092 46.4784L0.11143 48.1359C0.0459003 48.2151 0.0079635 48.3053 0.00112342 48.3984C-0.00571666 48.4914 0.0187607 48.5843 0.0722953 48.6683L1.23067 50.4921C1.30241 50.6053 1.42314 50.697 1.57312 50.752C1.7231 50.807 1.89347 50.8222 2.05641 50.7951L5.09324 50.2832L7.09496 50.9201C7.22779 50.962 7.37404 50.9737 7.51566 50.9539L11.208 50.448L12.3468 51.0554L13.2195 51.8672C13.3207 51.9612 13.46 52.0277 13.6161 52.0566C13.7722 52.0855 13.9367 52.0753 14.0844 52.0276L15.7808 51.4775C15.8001 51.4712 15.8191 51.4644 15.8376 51.4569L17.3736 50.8392L18.5672 50.4774C18.606 50.587 18.6887 50.6851 18.804 50.7583L19.5338 51.2245C19.642 51.2939 19.7745 51.3384 19.9154 51.3525L20.6589 51.426L20.5924 51.5525C20.5451 51.6428 20.5301 51.7408 20.549 51.8369C20.5679 51.9329 20.62 52.0235 20.7 52.0996L21.1149 52.4938C21.2266 52.6 21.3862 52.6718 21.5636 52.6956C21.7409 52.7195 21.9238 52.6937 22.0776 52.6232L22.9307 52.232L24.4119 53.4733C24.4838 53.5335 24.5724 53.5812 24.6714 53.6129C24.7705 53.6446 24.8775 53.6597 24.9851 53.6571C25.0927 53.6544 25.1982 53.6341 25.2942 53.5975C25.3903 53.5609 25.4745 53.509 25.541 53.4454L26.5056 52.5217L33.2544 51.9967C33.335 51.9902 33.4137 51.9738 33.4872 51.9481L34.7278 51.5157L38.064 51.3554C38.2281 51.3476 38.3841 51.2988 38.5072 51.2167C38.6302 51.1347 38.7132 51.024 38.743 50.9024L39.1695 49.1625C39.1956 49.0583 39.1813 48.9505 39.1284 48.8522L38.786 48.2212L39.2732 46.4549L40.776 46.2254L42.6447 46.4475C42.7676 46.462 42.8934 46.4529 43.0105 46.421C43.1275 46.3891 43.2318 46.3355 43.3139 46.2651L45.2999 44.559H46.2333C46.3538 44.559 46.4725 44.5368 46.579 44.4944C46.6855 44.4519 46.7765 44.3904 46.8441 44.3154C46.9117 44.2404 46.9537 44.1541 46.9667 44.064C46.9796 43.9739 46.9629 43.8828 46.9181 43.7987L46.7635 43.5104C46.8198 43.5179 46.8158 43.5176 46.8731 43.5222C47.6033 43.6032 48.293 43.6884 48.7555 43.6884C49.0764 43.6884 49.2169 43.6173 49.3777 43.553C49.5385 43.489 49.6945 43.4121 49.8571 43.3251C50.1825 43.1513 50.5321 42.9339 50.8648 42.7191C51.1388 42.5424 51.169 42.5136 51.3814 42.3676L51.5947 42.6882L51.4949 44.0458C51.4888 44.1254 51.5057 44.2051 51.5443 44.2794C51.583 44.3537 51.6425 44.4209 51.7189 44.4763C51.7952 44.5317 51.8866 44.5741 51.9867 44.6006C52.0868 44.6271 52.1934 44.637 52.2991 44.6296L54.52 44.4737C54.5705 44.4698 54.6203 44.4619 54.6687 44.4502L57.8112 43.7148L58.541 43.8899C58.7117 43.9308 58.8964 43.9237 59.0605 43.8699C59.2247 43.816 59.3572 43.7191 59.4333 43.5972L60.1788 42.4117L60.5134 42.2603C60.6369 42.204 60.7358 42.1218 60.7977 42.0238C60.8596 41.9257 60.8818 41.8162 60.8617 41.7087L60.715 40.9233L62.0514 40.1659C62.1972 40.0831 62.2969 39.9625 62.3312 39.8276L62.5504 38.9496L64.014 38.7849L67.4696 39.3143C67.5721 39.3283 67.6775 39.3258 67.7787 39.307L72.4122 38.5186C72.5707 38.4921 72.7131 38.4269 72.8173 38.3333L74.3885 36.914C74.4158 36.8887 74.44 36.8617 74.4609 36.8332L75.1966 35.8639L82.6146 32.9151C82.6878 32.9774 82.7788 33.0266 82.8807 33.0589C82.9827 33.0912 83.093 33.1059 83.2035 33.1018L84.6907 33.0504C84.8172 33.0462 84.9402 33.0177 85.0478 32.9675C85.1554 32.9172 85.244 32.847 85.3051 32.7636L86.3773 31.2899L89.4729 31.1443C89.5791 31.1393 89.6827 31.1172 89.7765 31.0793C89.8702 31.0415 89.952 30.9888 90.0161 30.9249C90.0803 30.8611 90.1253 30.7875 90.148 30.7094C90.1708 30.6312 90.1707 30.5503 90.1479 30.4721L89.7762 29.1882C89.7384 29.0573 89.639 28.9412 89.4962 28.8612C89.3534 28.7812 89.1769 28.7427 88.9993 28.7528L88.7724 28.7661L88.7332 28.5999C88.7123 28.5073 88.6605 28.4203 88.5826 28.3469L87.025 26.8864C86.948 26.8143 86.8482 26.7579 86.7348 26.7222C86.6213 26.6865 86.4978 26.6727 86.3754 26.682L83.7338 26.8835L80.6989 24.7068C80.6162 24.6477 80.5164 24.6039 80.4074 24.5788L75.5684 23.4596C75.4634 23.4351 75.3524 23.4285 75.2436 23.4404L72.8075 23.714L65.3191 23.2125L62.3625 22.883C62.264 22.8719 62.1635 22.8759 62.0671 22.8948L59.5585 23.3875L57.7897 23.6258L57.5764 23.5228C57.484 23.4787 57.3798 23.4505 57.2711 23.4404L54.8331 23.2139L53.9525 23.1022C53.8098 23.0842 53.6632 23.0982 53.531 23.1424C53.3988 23.1866 53.2868 23.259 53.209 23.3507L52.5085 24.1699L49.6791 23.8067C49.6492 23.8033 49.6192 23.8013 49.5891 23.8008L48.8885 23.7758L47.4543 23.0978C47.4128 23.0784 47.3689 23.0621 47.3232 23.0492L45.9867 22.6653C45.8951 22.6388 45.7973 22.6263 45.6991 22.6286L45.3704 22.6374L45.1747 22.3609C45.1162 22.2793 45.0314 22.21 44.9281 22.1594L43.218 21.3196C43.1714 21.2968 43.1215 21.2781 43.0693 21.2637L41.4295 20.8078C41.34 20.783 41.245 20.7715 41.1497 20.774Z" fill="white"/>
</g>
<circle cx="45.1864" cy="13.3631" r="8.48521" fill="white"/>
<path fill-rule="evenodd" clip-rule="evenodd" d="M35.867 4.1751C38.3391 1.725 41.6909 0.346739 45.1871 0.342651C48.6833 0.346739 52.0351 1.725 54.5072 4.1751C56.9794 6.62519 58.3701 9.94706 58.3742 13.412C58.3783 16.2423 57.4455 18.9957 55.7188 21.2501L55.7176 21.2536C55.7176 21.2536 55.3568 21.7218 55.304 21.7847L46.304 32.3047C45.7173 32.9904 44.6569 32.9904 44.0702 32.3047L35.075 21.7907C35.0163 21.7229 34.6566 21.2536 34.6566 21.2536C32.9291 18.9983 31.9958 16.2436 32 13.412C32.0041 9.94706 33.3948 6.62519 35.867 4.1751ZM45.1874 21.5975C49.75 21.5975 53.4488 17.8987 53.4488 13.3361C53.4488 8.77343 49.75 5.07467 45.1874 5.07467C40.6247 5.07467 36.926 8.77343 36.926 13.3361C36.926 17.8987 40.6247 21.5975 45.1874 21.5975Z" fill="#5ACC03"/>
<path d="M45.1873 10.7536C42.9153 10.7536 41.0732 12.5955 41.0732 14.8677V17.1538H44.3146V14.9098C44.3146 14.7721 44.4261 14.6604 44.5639 14.6604H45.8106C45.9484 14.6604 46.0599 14.7721 46.0599 14.9098V17.1538H49.3013V14.8677C49.3013 12.5955 47.4593 10.7536 45.1873 10.7536Z" fill="#5ACC03"/>
<path d="M42.075 9.7516H41.3908C40.9465 9.7516 40.5645 9.33694 40.5645 8.90536C40.5645 8.47378 40.9465 8.1649 41.3908 8.1649C41.3908 8.1649 41.1826 7.49981 41.379 7.16C41.7436 6.52904 43.1292 6.80576 43.2079 7.53023C43.2168 7.61236 43.2079 7.74179 43.2079 7.74179C43.2079 8.1649 42.8303 8.52455 42.386 8.52455V9.15923C43.2301 9.15923 43.9409 9.73044 44.1186 10.4921H43.4522C43.1946 10.0478 42.6659 9.7516 42.075 9.7516Z" fill="#5ACC03"/>
<defs>
<filter id="filter0_b_20_955" x="-86.4005" y="-65.6269" width="262.966" height="205.685" filterUnits="userSpaceOnUse" color-interpolation-filters="sRGB">
<feFlood flood-opacity="0" result="BackgroundImageFix"/>
<feGaussianBlur in="BackgroundImageFix" stdDeviation="43.2003"/>
<feComposite in2="SourceAlpha" operator="in" result="effect1_backgroundBlur_20_955"/>
<feBlend mode="normal" in="SourceGraphic" in2="effect1_backgroundBlur_20_955" result="shape"/>
</filter>
</defs>
</svg>
